<svg xmlns="http://www.w3.org/2000/svg" xmlns:xlink="http://www.w3.org/1999/xlink" width="176" height="176" viewBox="0 0 176 176">
  <defs>
    <filter id="Ellipse_1" x="0" y="0" width="176" height="176" filterUnits="userSpaceOnUse">
      <feOffset input="SourceAlpha"/>
      <feGaussianBlur stdDeviation="8.5" result="blur"/>
      <feFlood flood-opacity="0.161"/>
      <feComposite operator="in" in2="blur"/>
      <feComposite in="SourceGraphic"/>
    </filter>
  </defs>
  <g id="Group_2" data-name="Group 2" transform="translate(-1729.5 -902.5)">
    <g transform="matrix(1, 0, 0, 1, 1729.5, 902.5)" filter="url(#Ellipse_1)">
      <circle id="Ellipse_1-2" data-name="Ellipse 1" cx="62.5" cy="62.5" r="62.5" transform="translate(25.5 25.5)" fill="#ed7302"/>
    </g>
    <path id="comments-solid" d="M53.208,52.464C53.208,41.158,41.3,32,26.6,32S0,41.158,0,52.464A17.352,17.352,0,0,0,4.86,64.231,28.789,28.789,0,0,1,.281,71.2,1.017,1.017,0,0,0,.09,72.315a1,1,0,0,0,.934.614,22.52,22.52,0,0,0,11.345-3.2,32.545,32.545,0,0,0,14.236,3.2C41.3,72.929,53.208,63.771,53.208,52.464ZM68.812,80.6a17.328,17.328,0,0,0,4.86-11.767c0-8.557-6.843-15.886-16.538-18.942a19.007,19.007,0,0,1,.166,2.571c0,13.545-13.775,24.557-30.7,24.557a38.347,38.347,0,0,1-4.055-.243C26.578,84.133,36.043,89.3,47.068,89.3A32.367,32.367,0,0,0,61.3,86.1a22.521,22.521,0,0,0,11.345,3.2,1.008,1.008,0,0,0,.934-.614,1.025,1.025,0,0,0-.192-1.113A28.483,28.483,0,0,1,68.812,80.6Z" transform="translate(1781 930.35)" fill="#fff"/>
  </g>
</svg>
