<svg xmlns="http://www.w3.org/2000/svg" xmlns:xlink="http://www.w3.org/1999/xlink" viewBox="0 0 307.04 43.16"><defs><style>.a{fill:none;}.b{clip-path:url(#a);}.c{fill:#231f20;}.d{clip-path:url(#b);}</style><clipPath id="a"><rect class="a" width="307.04" height="43.16"/></clipPath><clipPath id="b"><rect class="a" x="139.03" width="39.02" height="23.58"/></clipPath></defs><title>Artboard 1</title><g class="b"><path class="c" d="M130.63,19.05h-9.39V13.61h6.21v-4h-6.21V4.5H130V.26H116.41v23h14.22ZM104.6,4.5c2.55,0,3.9,2.25,3.9,7.27s-1.35,7.28-3.86,7.28h-2.77V4.5ZM97,.26v23h7.6c5.43,0,8.68-3.22,8.68-11.49S110.07.26,104.64.26ZM94.82,19.05h-8.4V.26H81.6v23H94.82ZM73.11,23.26h4.82V.26H73.11ZM65.73.26,59.33,11.1V.26H54.51v23h4.82v-5.5l2.64-4,4,9.46h5.44L65,9.46,70.72.26ZM36.81,16.12c.39,4.79,3.76,7.46,7.59,7.46a7.16,7.16,0,0,0,7.43-7.2c0-7.12-9.68-6.5-9.68-10a1.93,1.93,0,0,1,2-2.06,2.24,2.24,0,0,1,2.35,2h4.69A6.83,6.83,0,0,0,44.31,0a6.72,6.72,0,0,0-7,6.82C37.33,14,47,12.9,47,16.73a2.44,2.44,0,0,1-2.55,2.48c-1.51,0-2.64-1-2.86-3.06ZM26.19,23.58c5.31,0,8.62-3.53,8.62-11.84C34.81,3.63,31.63,0,26.22,0S17.6,3.6,17.6,11.81s3.22,11.77,8.59,11.77m0-4.27c-2.32,0-3.8-2.29-3.8-7.5s1.52-7.53,3.8-7.53S30,6.59,30,11.81s-1.48,7.5-3.77,7.5M7.24,4.5a3.13,3.13,0,0,1,3.15,3.22,3.1,3.1,0,0,1-3.15,3.19H4.82V4.5ZM0,23.26H4.82V15H7.3l3.8,8.24h5.31l-4.57-9.39a7.85,7.85,0,0,0,3.41-6.15A7.49,7.49,0,0,0,7.56.26H0Z"/><path class="c" d="M307,19.05h-8.4V.26h-4.82v23H307ZM282.56,6.27l2.06,8.24H280.5Zm-4.12,17,1.16-4.73h5.92l1.22,4.73h5.12l-6.63-23h-5.34l-6.6,23ZM271,.26l-4,15.86-4-15.86H258l6.56,23h4.76L276,.26Zm-19.69,23h4.83V.26h-4.83ZM233,4.47h5.6V23.26h4.82V4.47h5.63V.26H233ZM217.63,16.12c.38,4.79,3.76,7.46,7.59,7.46a7.16,7.16,0,0,0,7.43-7.2c0-7.12-9.69-6.5-9.69-10a1.94,1.94,0,0,1,2-2.06,2.23,2.23,0,0,1,2.35,2H232A6.83,6.83,0,0,0,225.12,0a6.72,6.72,0,0,0-7,6.82c0,7.18,9.66,6.08,9.66,9.91a2.44,2.44,0,0,1-2.55,2.48c-1.51,0-2.64-1-2.86-3.06Zm-.52,2.93h-9.4V13.61h6.21v-4h-6.21V4.5h8.75V.26H202.89v23h14.22Zm-25.84,4.21V14h7.27V10h-7.27V4.5h9.2V.26h-14v23Z"/></g><g class="d"><path class="c" d="M168.86,1.56h-.26a10.49,10.49,0,0,1-5.76,4.62C158.06,7.72,152.77,5.07,149.41,0H149c-.56,6.53-4.31,12.07-9.92,15.91v.34a8,8,0,0,1,5.73.25c2.08,1.26,3.13,3.85,3.18,7.08h.49c2-8.42,8-14.38,14.83-13.9,5.59.4,9.33,3.8,11.32,10.15h.28a5.44,5.44,0,0,1,3.19-2v-.22a24.86,24.86,0,0,1-9.19-16"/></g><g class="b"><path class="c" d="M213,43.16c2.31,0,3.41-1.75,3.41-5.37s-1.06-5.41-3.4-5.41-3.41,1.87-3.41,5.43,1.07,5.35,3.4,5.35m0-1.91c-.91,0-1.25-1.28-1.25-3.46s.35-3.49,1.24-3.49,1.25,1.27,1.25,3.51-.34,3.44-1.24,3.44m-6.87-5.5a3.27,3.27,0,0,1-1,1.85l-3.35,3.61V43h6.56V41.14h-3.84l2.46-2.52a4.31,4.31,0,0,0,1.32-2.89,3.33,3.33,0,0,0-3.35-3.35,3.46,3.46,0,0,0-3.42,3.76h2.17c0-1.08.35-1.82,1.22-1.82a1.3,1.3,0,0,1,1.25,1.43m-9.27,7.41c2.31,0,3.41-1.75,3.41-5.37s-1.06-5.41-3.4-5.41-3.41,1.87-3.41,5.43,1.07,5.35,3.4,5.35m0-1.91c-.91,0-1.25-1.28-1.25-3.46s.35-3.49,1.24-3.49,1.25,1.27,1.25,3.51-.34,3.44-1.24,3.44M190,35.75a3.25,3.25,0,0,1-1,1.85l-3.36,3.61V43h6.56V41.14h-3.84l2.46-2.52a4.31,4.31,0,0,0,1.32-2.89,3.33,3.33,0,0,0-3.35-3.35,3.45,3.45,0,0,0-3.41,3.76h2.16c0-1.08.35-1.82,1.22-1.82A1.29,1.29,0,0,1,190,35.75m-8.3-3.25h-2.3l-1.88,4.06-1.87-4.06h-2.28l3,6.41V43h2.22V38.91c1-2.15,2-4.27,3.06-6.41m-6.23,8.59h-3.84V32.5h-2.2V43h6ZM163,32.5h-2.22v7.25a3.49,3.49,0,0,0,7,0V32.5h-2.22v7.31a1.27,1.27,0,1,1-2.54,0Zm-8,6.75h-2.14v.81a2.93,2.93,0,0,0,3.12,3.1A3,3,0,0,0,159.16,40V32.5h-2.22v7.55c0,.78-.37,1.23-.94,1.23s-1-.54-1-1.23Zm-8.57-4v3.83h-2.53Zm0,7.79h2.16V40.77h.85V39.06h-.85V32.5h-2.22l-4.42,6.57v1.7h4.48Zm-12.16-3.58h4.15V37.69h-4.15Zm-3.53,1.65h-4.3V38.6h2.84V36.78h-2.84V34.44h4V32.5h-6.2V43h6.5Zm-8.2-8.59h-2.12V39l-3-6.46h-2.11V43h2.12V36.63l3,6.39h2.09Zm-13.6,0h-2.22v7.25a3.49,3.49,0,0,0,7,0V32.5h-2.22v7.31a1.27,1.27,0,1,1-2.54,0Zm-8,6.75H98.77v.81a2.93,2.93,0,0,0,3.12,3.1A3,3,0,0,0,105.08,40V32.5h-2.22v7.55c0,.78-.37,1.23-.94,1.23s-1-.54-1-1.23ZM88.88,43h2.44l3.78-8.79V32.5h-7v1.92h4.66Zm-4.11-7.27a3.25,3.25,0,0,1-1,1.85L80.4,41.21V43H87V41.14H83.12l2.46-2.52a4.31,4.31,0,0,0,1.32-2.89,3.33,3.33,0,0,0-3.35-3.35,3.45,3.45,0,0,0-3.41,3.76H82.3c0-1.08.35-1.82,1.22-1.82a1.29,1.29,0,0,1,1.25,1.43"/></g></svg>